<?xml version="1.0" encoding="UTF-8" standalone="no"?>
<!-- Created with Inkscape (http://www.inkscape.org/) -->

<svg
   width="2048"
   height="2048"
   viewBox="0 0 541.86665 541.86665"
   version="1.1"
   id="svg5"
   inkscape:export-filename="/Users/jordan/Downloads/Pine.png"
   inkscape:export-xdpi="253.21001"
   inkscape:export-ydpi="253.21001"
   inkscape:version="1.1.1 (c3084ef, 2021-09-22)"
   sodipodi:docname="pine.svg"
   xmlns:inkscape="http://www.inkscape.org/namespaces/inkscape"
   xmlns:sodipodi="http://sodipodi.sourceforge.net/DTD/sodipodi-0.dtd"
   xmlns="http://www.w3.org/2000/svg"
   xmlns:svg="http://www.w3.org/2000/svg">
  <sodipodi:namedview
     id="namedview7"
     pagecolor="#ffffff"
     bordercolor="#666666"
     borderopacity="1.0"
     inkscape:pageshadow="2"
     inkscape:pageopacity="1"
     inkscape:pagecheckerboard="0"
     inkscape:document-units="mm"
     showgrid="false"
     inkscape:zoom="0.098426278"
     inkscape:cx="1275.066"
     inkscape:cy="695.95235"
     inkscape:window-width="1440"
     inkscape:window-height="847"
     inkscape:window-x="0"
     inkscape:window-y="25"
     inkscape:window-maximized="0"
     inkscape:current-layer="layer1"
     units="px"
     width="2048px" />
  <defs
     id="defs2" />
  <g
     inkscape:label="Layer 1"
     inkscape:groupmode="layer"
     id="layer1"
     transform="translate(-2.2823486,-45.782349)">
    <rect
       style="fill:#ffffff;fill-opacity:1;stroke:none;stroke-width:1.55078"
       id="rect1461"
       width="541.86664"
       height="541.86664"
       x="2.2823629"
       y="45.782364" />
    <path
       d="M 269.78024,143.42164 H 119.75741 v 6.43673 c 13.37328,7.91917 19.30876,17.32506 19.30876,54.96002 v 223.79459 c 0,37.62642 -5.93548,47.03939 -19.30876,54.96001 v 6.43673 h 140.61975 c 3.6891,0 7.32708,-0.068 10.9139,-0.19442 1.34049,-14.22954 2.84705,-34.82763 3.81549,-55.41864 l 0.53534,-14.42408 c -0.0781,-0.80796 -0.45866,-1.38448 -1.36745,-0.4331 -12.1862,12.82092 -12.82092,10.83722 -17.859,9.36189 -5.64864,-1.64574 -22.66699,-7.84394 -25.19453,-9.60046 -2.26485,-1.56762 -1.61024,-2.39973 0.967,-3.49453 12.84789,-5.40866 40.11277,-17.56077 43.93535,-19.16393 0.26284,-0.10949 0.44159,-0.37474 0.45012,-0.6532 l 0.31396,-8.1833 c 0.0282,-0.52681 -0.50124,-0.90734 -0.99255,-0.72134 -6.64832,2.48353 -40.56009,16.47737 -45.53847,18.31766 -5.47826,2.03622 -8.59084,1.77354 -12.94163,-1.24674 -3.33976,-2.30603 -14.33887,-15.24626 -16.16354,-18.32616 -0.67735,-1.15162 -1.41571,-2.28046 0.76393,-2.73772 2.06891,-0.44159 68.02941,-13.83336 75.05971,-15.14542 0.33811,-0.068 0.5836,-0.35784 0.60063,-0.69578 l 0.32241,-8.02282 c 0.0201,-0.4672 -0.38762,-0.83212 -0.84769,-0.76397 -7.53864,1.18 -58.77546,10.21953 -64.47668,11.15247 -6.13709,1.00958 -7.47754,-1.33904 -9.59756,-4.01993 -2.12144,-2.67952 -9.25113,-18.21542 -10.04206,-19.68366 -1.44836,-2.67948 -1.57616,-3.84954 0.98546,-4.01992 21.4643,-1.38166 77.3061,-4.67171 84.23272,-5.10481 0.37474,-0.0242 0.67163,-0.33087 0.68729,-0.70291 l 0.28095,-7.49742 c 0.0161,-0.4331 -0.33247,-0.77814 -0.76538,-0.77105 -7.19074,0.23869 -64.86429,2.00217 -68.70534,1.87437 -3.90066,-0.13484 -5.58046,-0.5609 -7.70049,-5.02813 -1.90843,-4.01284 -4.33376,-21.21864 -4.55527,-23.10864 -0.16744,-1.43414 -0.32965,-2.57865 2.13847,-2.12143 19.61547,3.62944 72.41288,9.48969 79.51983,10.37006 0.42456,0.0539 0.80369,-0.27692 0.82217,-0.70999 l 0.27129,-6.90387 c 0.008,-0.37193 -0.25439,-0.70291 -0.62764,-0.76397 -6.04625,-0.94144 -54.34228,-8.19039 -59.68421,-9.16591 -5.73954,-1.05076 -6.75765,-2.13706 -8.09954,-6.31746 -0.92296,-2.88396 -1.90702,-17.01976 -1.92264,-18.52922 -0.0282,-1.57757 -0.15336,-2.50338 1.98229,-1.87434 32.60682,9.52942 62.69601,17.13907 68.16429,18.50366 0.46007,0.11914 0.9003,-0.22138 0.91732,-0.68588 l 0.2556,-6.66535 c 0.0161,-0.34777 -0.20448,-0.6546 -0.54529,-0.7469 -5.19706,-1.39156 -44.54591,-11.95757 -47.836,-13.05945 -3.73169,-1.24819 -6.87691,-2.99472 -7.58972,-7.3441 -0.71285,-4.39338 -0.79806,-13.81348 -0.66881,-15.90086 0.13363,-2.12852 0.39768,-2.68942 2.1612,-1.82322 14.7975,7.31002 48.10863,19.77592 54.16196,22.03083 0.4771,0.16906 0.97553,-0.16905 1.0025,-0.66877 l 0.24553,-6.44526 c 0.0161,-0.31396 -0.17026,-0.59354 -0.45721,-0.71285 -4.02991,-1.65424 -32.30152,-13.21993 -36.97464,-15.24762 -4.53683,-1.9752 -5.41012,-3.5613 -5.85884,-7.71756 -0.23869,-2.26344 -0.32362,-8.47866 0.21857,-12.22737 0.34777,-2.36568 0.17751,-2.9422 3.76578,-0.81364 7.18221,4.2727 33.33524,17.89305 38.87312,20.76847 0.48422,0.25278 1.05933,-0.0865 1.07776,-0.62759 l 0.24553,-6.35296 c 0.008,-0.27975 -0.13645,-0.54243 -0.39043,-0.67735 -2.81581,-1.51083 -19.54733,-10.47512 -23.47214,-12.62067 -5.08775,-2.78884 -6.53043,-4.94292 -6.64261,-7.33416 -0.21011,-4.436 0.23869,-9.63311 0.50124,-11.50745 0.45722,-3.29862 1.20557,-3.74022 3.37667,-2.01071 9.42151,7.52303 22.32624,15.97754 26.11757,18.43552 0.48418,0.30671 1.1189,-0.0241 1.14591,-0.59355 l 0.21857,-5.68133 c 0.008,-0.23707 -0.0922,-0.45721 -0.27814,-0.60207 -2.2052,-1.76361 -16.17207,-11.90501 -16.17207,-11.90501 0,0 -1.83316,-1.6699 -1.81472,-3.40935 0.0282,-3.11258 1.0863,-9.36331 1.47536,-10.46522 0.50125,-1.39865 0.80511,-2.16117 2.333,-0.64321 6.83577,6.83287 11.13399,10.37143 13.93137,12.6775 0.78095,0.64321 1.07776,0.77101 1.07776,0.10948 0,-6.50346 -2.95922,-19.4025 3.46756,-22.95527 0.10385,-0.0511 0.22299,-0.0853 0.34093,-0.0853 0.11793,0 0.23708,0.0322 0.34777,0.0853 6.42819,3.55277 3.46756,16.45181 3.46756,22.95527 0,0.66169 0.28699,0.53389 1.06782,-0.10948 2.81013,-2.30607 7.10694,-5.84463 13.94268,-12.6775 1.51795,-1.51796 1.83034,-0.75544 2.32309,0.64321 0.39768,1.10191 1.4583,7.35264 1.48527,10.46522 0.008,1.73945 -1.81613,3.40935 -1.81613,3.40935 0,0 -13.97396,10.1414 -16.18056,11.90501 -0.17751,0.1449 -0.27975,0.36508 -0.26969,0.60207 l 0.21857,5.68133 c 0.0201,0.5694 0.6546,0.90026 1.13596,0.59355 3.79134,-2.45798 16.70029,-10.91249 26.12888,-18.43552 2.17256,-1.72951 2.90811,-1.28791 3.36536,2.01071 0.26405,1.87434 0.71281,7.07145 0.51119,11.50745 -0.11069,2.39124 -1.55204,4.54532 -6.64973,7.33416 -3.91769,2.14555 -20.64925,11.10984 -23.47214,12.62067 -0.24835,0.13484 -0.39889,0.39768 -0.39205,0.67735 l 0.24553,6.35296 c 0.0282,0.54101 0.60349,0.88037 1.08767,0.62759 5.52797,-2.87542 31.67959,-16.49577 38.87175,-20.76847 3.58682,-2.12856 3.41926,-1.55204 3.75725,0.81364 0.54242,3.74871 0.46715,9.96393 0.22138,12.22737 -0.44305,4.15626 -1.31489,5.74236 -5.86021,7.71756 -4.67171,2.02769 -32.94622,13.59338 -36.97322,15.24762 -0.28981,0.11915 -0.4672,0.39889 -0.46007,0.71285 l 0.25559,6.44526 c 0.0161,0.4998 0.51687,0.83779 0.99114,0.66877 6.05615,-2.25491 39.37437,-14.72081 54.17331,-22.03083 1.75512,-0.8662 2.02633,-0.3051 2.15268,1.82322 0.13645,2.08738 0.0511,11.50748 -0.67023,15.90086 -0.70286,4.34938 -3.84954,6.09591 -7.58975,7.3441 -3.28156,1.10188 -42.63037,11.66789 -47.83742,13.05945 -0.32925,0.0922 -0.55092,0.39889 -0.54101,0.7469 l 0.26123,6.66535 c 0.0201,0.46434 0.45721,0.80514 0.91728,0.68588 5.45979,-1.36459 35.54898,-8.97424 68.1558,-18.50366 2.14558,-0.62904 2.00925,0.29665 1.99223,1.87434 -0.0161,1.50946 -1.00962,15.64526 -1.92409,18.52922 -1.34044,4.1804 -2.36568,5.2667 -8.10803,6.31746 -5.34052,0.97552 -53.63656,8.22447 -59.68567,9.16591 -0.37071,0.0612 -0.63472,0.39204 -0.61624,0.76397 l 0.26123,6.90387 c 0.0242,0.43311 0.4005,0.76397 0.83211,0.70999 7.10554,-0.88037 59.90431,-6.74062 79.51129,-10.37006 2.47501,-0.45722 2.30744,0.68729 2.14414,2.12143 -0.22862,1.89 -2.64397,19.0958 -4.55385,23.10864 -2.11999,4.46723 -3.79842,4.89321 -7.70758,5.02813 -3.83392,0.1276 -61.50751,-1.63581 -68.70816,-1.87437 -0.42316,-0.008 -0.77105,0.33811 -0.75262,0.77105 l 0.2713,7.49742 c 0.0161,0.37192 0.31396,0.67876 0.69292,0.70291 6.92095,0.4331 62.76275,3.72315 84.22845,5.10481 2.5673,0.17026 2.44095,1.34044 0.99114,4.01992 -0.79802,1.46824 -7.92058,17.00414 -10.04061,19.68366 -2.12144,2.68089 -3.46047,5.02951 -9.59901,4.01993 -5.7083,-0.93294 -56.94654,-9.97247 -64.48518,-11.15247 -0.45862,-0.068 -0.86475,0.29665 -0.84628,0.76397 l 0.32926,8.02282 c 0.008,0.33811 0.25438,0.62763 0.59354,0.69578 7.03031,1.31206 72.99789,14.70383 75.06821,15.14542 2.17823,0.45726 1.44127,1.5861 0.75402,2.73772 -1.81472,3.0799 -12.81524,16.02013 -16.15645,18.32616 -4.35646,3.02028 -7.46051,3.28296 -12.93877,1.24674 -4.97843,-1.84029 -38.89019,-15.83413 -45.53992,-18.31766 -0.4998,-0.18596 -1.01812,0.19441 -1.00105,0.72134 l 0.32362,8.1833 c 0.008,0.27854 0.18757,0.54387 0.44872,0.6532 3.81686,1.60316 31.07893,13.75527 43.93676,19.16393 2.57724,1.0948 3.2219,1.92691 0.96413,3.49453 -2.53321,1.75652 -19.55441,7.95472 -25.19453,9.60046 -5.04375,1.47533 -5.67139,3.45903 -17.85758,-9.36189 -0.90735,-0.95138 -1.28933,-0.37474 -1.36601,0.4331 l 0.52681,14.42408 c 0.90738,19.11423 2.27198,38.23699 3.52721,52.26489 100.40619,-15.80857 153.46768,-86.20366 153.46768,-178.3669 0,-94.56301 -64.36446,-164.87289 -188.64462,-164.87289"
       style="fill:#1f673c;fill-opacity:1;fill-rule:nonzero;stroke:none;stroke-width:0.141997"
       id="path845" />
  </g>
</svg>
