<?xml version="1.0" encoding="UTF-8" standalone="no"?>
<!-- Created with Inkscape (http://www.inkscape.org/) -->

<svg
   width="338.66666mm"
   height="346.58817mm"
   viewBox="0 0 338.66665 346.58815"
   version="1.1"
   id="svg5"
   inkscape:export-filename="/Users/jordan/Downloads/lookup.png"
   inkscape:export-xdpi="253.21001"
   inkscape:export-ydpi="253.21001"
   inkscape:version="1.1.2 (b8e25be8, 2022-02-05)"
   sodipodi:docname="lookup.svg"
   xmlns:inkscape="http://www.inkscape.org/namespaces/inkscape"
   xmlns:sodipodi="http://sodipodi.sourceforge.net/DTD/sodipodi-0.dtd"
   xmlns="http://www.w3.org/2000/svg"
   xmlns:svg="http://www.w3.org/2000/svg">
  <sodipodi:namedview
     id="namedview7"
     pagecolor="#ffffff"
     bordercolor="#666666"
     borderopacity="1.0"
     inkscape:pageshadow="2"
     inkscape:pageopacity="1"
     inkscape:pagecheckerboard="0"
     inkscape:document-units="mm"
     showgrid="false"
     inkscape:zoom="0.19685256"
     inkscape:cx="345.4362"
     inkscape:cy="713.73215"
     inkscape:window-width="1440"
     inkscape:window-height="847"
     inkscape:window-x="0"
     inkscape:window-y="25"
     inkscape:window-maximized="0"
     inkscape:current-layer="layer1"
     units="mm"
     width="2048px" />
  <defs
     id="defs2" />
  <g
     inkscape:label="Layer 1"
     inkscape:groupmode="layer"
     id="layer1"
     transform="translate(314.87927,382.17107)">
    <path
       id="path845-9"
       style="fill:#1f673c;fill-opacity:1;fill-rule:nonzero;stroke:none;stroke-width:0.348845"
       d="M 250 229.24023 L 250 245.05273 C 282.85403 264.5077 297.43555 287.61467 297.43555 380.07227 L 297.43555 929.86719 C 297.43555 1022.3037 282.85403 1045.4282 250 1064.8867 L 250 1080.6992 L 595.45898 1080.6992 L 704.97656 1072.4746 C 951.64374 1033.6378 1082 860.69797 1082 634.28125 C 1082 401.9696 923.87512 229.24122 618.55859 229.24023 L 250 229.24023 z M 641.41016 415.31055 C 645.96184 415.41751 650.53631 415.63253 655.19727 416.27539 C 702.25718 422.2286 741.40157 459.37104 751.04492 505.86523 C 757.28103 535.63223 750.74882 563.14009 737.42383 585.82031 L 789.85938 638.86719 C 800.91495 649.92386 800.91495 667.78704 789.85938 678.84375 C 778.80267 689.90053 760.9376 689.90053 749.88086 678.84375 L 697.16797 626.07617 C 674.48876 639.37561 646.97992 645.9333 617.21289 639.69727 C 570.71881 630.05815 533.85904 590.91059 527.62305 543.84961 C 518.32133 473.94993 573.09618 414.58394 641.41016 415.33398 L 641.41016 415.31055 z M 640.1875 471.86914 C 609.00284 471.86914 583.49023 497.38179 583.49023 528.56641 C 583.49023 559.75102 609.00284 585.26758 640.1875 585.26758 C 671.37223 585.26758 696.88867 559.75102 696.88867 528.56641 C 696.88867 497.38179 671.37223 471.86914 640.1875 471.86914 z M 640 715.51367 C 719.70098 715.51367 878.82031 755.51536 878.82031 834.92188 L 878.82031 864.77344 C 878.82031 881.19205 865.38313 894.62695 848.9668 894.62695 L 431.0332 894.62695 C 414.61686 894.62695 401.17969 881.19205 401.17969 864.77344 L 401.17969 834.92188 C 401.17969 755.51536 560.29902 715.51367 640 715.51367 z "
       transform="matrix(0.26458333,0,0,0.26458333,-314.87927,-382.17107)" />
  </g>
</svg>
