<?xml version="1.0" encoding="UTF-8" standalone="no"?>
<svg
   width="1024"
   height="1024"
   viewBox="0 0 1024 1024"
   fill="none"
   version="1.1"
   id="svg416"
   sodipodi:docname="Icon Frame.svg"
   inkscape:export-filename="/Users/jordan/Downloads/MacIcon.appiconset/32.png"
   inkscape:export-xdpi="3"
   inkscape:export-ydpi="3"
   inkscape:version="1.1.2 (b8e25be8, 2022-02-05)"
   xmlns:inkscape="http://www.inkscape.org/namespaces/inkscape"
   xmlns:sodipodi="http://sodipodi.sourceforge.net/DTD/sodipodi-0.dtd"
   xmlns="http://www.w3.org/2000/svg"
   xmlns:svg="http://www.w3.org/2000/svg">
  <sodipodi:namedview
     id="namedview418"
     pagecolor="#ffffff"
     bordercolor="#999999"
     borderopacity="1"
     inkscape:pageshadow="0"
     inkscape:pageopacity="0"
     inkscape:pagecheckerboard="0"
     showgrid="false"
     inkscape:zoom="0.5"
     inkscape:cx="512"
     inkscape:cy="511"
     inkscape:window-width="1440"
     inkscape:window-height="847"
     inkscape:window-x="0"
     inkscape:window-y="25"
     inkscape:window-maximized="0"
     inkscape:current-layer="svg416" />
  <g
     filter="url(#filter0_di_102_2)"
     id="g362">
    <mask
       id="mask0_102_2"
       style="mask-type:alpha"
       maskUnits="userSpaceOnUse"
       x="100"
       y="100"
       width="824"
       height="824">
      <path
         fill-rule="evenodd"
         clip-rule="evenodd"
         d="M924 356.627C924 346.845 924.004 337.062 923.944 327.279C923.895 319.038 923.8 310.799 923.576 302.562C923.092 284.609 922.033 266.502 918.84 248.749C915.602 230.741 910.314 213.98 901.981 197.617C893.789 181.534 883.088 166.817 870.32 154.058C857.555 141.299 842.834 130.605 826.746 122.418C810.366 114.083 793.587 108.797 775.558 105.56C757.803 102.372 739.691 101.315 721.738 100.83C713.495 100.607 705.253 100.513 697.008 100.462C687.22 100.402 677.432 100.407 667.644 100.407L553.997 100H468.997L357.361 100.407C347.554 100.407 337.747 100.402 327.94 100.462C319.678 100.513 311.42 100.607 303.161 100.83C285.167 101.315 267.014 102.373 249.217 105.565C231.164 108.801 214.36 114.085 197.958 122.414C181.835 130.602 167.083 141.297 154.291 154.058C141.501 166.816 130.78 181.53 122.573 197.61C114.217 213.981 108.919 230.752 105.673 248.77C102.477 266.516 101.418 284.617 100.931 302.562C100.709 310.8 100.613 319.039 100.563 327.279C100.503 337.063 100 349.216 100 358.999L100.003 469.089L100 554.998L100.508 667.427C100.508 677.223 100.504 687.019 100.563 696.815C100.613 705.067 100.709 713.317 100.932 721.566C101.418 739.542 102.479 757.675 105.678 775.452C108.923 793.484 114.22 810.269 122.569 826.653C130.777 842.759 141.5 857.495 154.291 870.272C167.082 883.049 181.83 893.757 197.95 901.956C214.362 910.302 231.174 915.595 249.238 918.836C267.027 922.029 285.174 923.088 303.161 923.573C311.42 923.796 319.679 923.891 327.941 923.941C337.748 924.001 347.554 923.997 357.361 923.997L470.006 924H555.217L667.644 923.996C677.432 923.996 687.22 924.001 697.008 923.941C705.253 923.891 713.495 923.796 721.738 923.573C739.698 923.087 757.816 922.027 775.579 918.832C793.597 915.591 810.368 910.3 826.739 901.959C842.831 893.761 857.554 883.051 870.32 870.272C883.086 857.497 893.786 842.763 901.978 826.66C910.316 810.268 915.604 793.475 918.844 775.431C922.034 757.661 923.092 739.535 923.577 721.566C923.8 713.316 923.895 705.066 923.944 696.815C924.005 687.019 924 677.223 924 667.427C924 667.427 923.994 556.983 923.994 554.998V468.999C923.994 467.533 924 356.627 924 356.627Z"
         fill="white"
         id="path355" />
    </mask>
    <g
       mask="url(#mask0_102_2)"
       id="g360">
      <rect
         x="55"
         y="54"
         width="914"
         height="914"
         fill="white"
         id="rect358" />
    </g>
  </g>
  <g
     filter="url(#filter1_i_102_2)"
     id="g366">
    <path
       d="M241 213V224.124C264.1 237.811 274.353 254.066 274.353 319.11V705.89C274.353 770.919 264.1 787.187 241 800.876V812H483.901L560.905 806.214C734.343 778.892 826 657.229 826 497.946C826 334.515 714.818 213.001 500.143 213H241ZM516.21 343.9C519.411 343.975 522.627 344.127 525.904 344.579C558.993 348.767 586.517 374.897 593.297 407.605C597.682 428.546 593.089 447.898 583.72 463.854L620.589 501.172C628.362 508.95 628.362 521.517 620.589 529.295C612.814 537.074 600.253 537.074 592.479 529.295L555.415 492.173C539.469 501.53 520.126 506.143 499.197 501.756C466.505 494.975 440.588 467.435 436.204 434.327C429.663 385.153 468.177 343.389 516.21 343.917V343.9ZM515.351 383.689C493.424 383.689 475.485 401.637 475.485 423.575C475.485 445.514 493.424 463.465 515.351 463.465C537.277 463.465 555.219 445.514 555.219 423.575C555.219 401.637 537.277 383.689 515.351 383.689ZM515.219 555.093C571.259 555.093 683.139 583.234 683.139 639.096V660.097C683.139 671.647 673.691 681.098 662.149 681.098H368.289C356.746 681.098 347.298 671.647 347.298 660.097V639.096C347.298 583.234 459.179 555.093 515.219 555.093Z"
       fill="#1F673C"
       id="path364" />
  </g>
  <defs
     id="defs414">
    <filter
       id="filter0_di_102_2"
       x="90"
       y="0"
       width="844"
       height="944"
       filterUnits="userSpaceOnUse"
       color-interpolation-filters="sRGB">
      <feFlood
         flood-opacity="0"
         result="BackgroundImageFix"
         id="feFlood368" />
      <feColorMatrix
         in="SourceAlpha"
         type="matrix"
         values="0 0 0 0 0 0 0 0 0 0 0 0 0 0 0 0 0 0 127 0"
         result="hardAlpha"
         id="feColorMatrix370" />
      <feOffset
         dy="10"
         id="feOffset372" />
      <feGaussianBlur
         stdDeviation="5"
         id="feGaussianBlur374" />
      <feComposite
         in2="hardAlpha"
         operator="out"
         id="feComposite376" />
      <feColorMatrix
         type="matrix"
         values="0 0 0 0 0 0 0 0 0 0 0 0 0 0 0 0 0 0 0.3 0"
         id="feColorMatrix378" />
      <feBlend
         mode="normal"
         in2="BackgroundImageFix"
         result="effect1_dropShadow_102_2"
         id="feBlend380" />
      <feBlend
         mode="normal"
         in="SourceGraphic"
         in2="effect1_dropShadow_102_2"
         result="shape"
         id="feBlend382" />
      <feColorMatrix
         in="SourceAlpha"
         type="matrix"
         values="0 0 0 0 0 0 0 0 0 0 0 0 0 0 0 0 0 0 127 0"
         result="hardAlpha"
         id="feColorMatrix384" />
      <feOffset
         dy="-100"
         id="feOffset386" />
      <feGaussianBlur
         stdDeviation="100"
         id="feGaussianBlur388" />
      <feComposite
         in2="hardAlpha"
         operator="arithmetic"
         k2="-1"
         k3="1"
         id="feComposite390" />
      <feColorMatrix
         type="matrix"
         values="0 0 0 0 0 0 0 0 0 0 0 0 0 0 0 0 0 0 0.1 0"
         id="feColorMatrix392" />
      <feBlend
         mode="normal"
         in2="shape"
         result="effect2_innerShadow_102_2"
         id="feBlend394" />
    </filter>
    <filter
       id="filter1_i_102_2"
       x="241"
       y="213"
       width="590"
       height="609"
       filterUnits="userSpaceOnUse"
       color-interpolation-filters="sRGB">
      <feFlood
         flood-opacity="0"
         result="BackgroundImageFix"
         id="feFlood397" />
      <feBlend
         mode="normal"
         in="SourceGraphic"
         in2="BackgroundImageFix"
         result="shape"
         id="feBlend399" />
      <feColorMatrix
         in="SourceAlpha"
         type="matrix"
         values="0 0 0 0 0 0 0 0 0 0 0 0 0 0 0 0 0 0 127 0"
         result="hardAlpha"
         id="feColorMatrix401" />
      <feOffset
         dx="5"
         dy="20"
         id="feOffset403" />
      <feGaussianBlur
         stdDeviation="5"
         id="feGaussianBlur405" />
      <feComposite
         in2="hardAlpha"
         operator="arithmetic"
         k2="-1"
         k3="1"
         id="feComposite407" />
      <feColorMatrix
         type="matrix"
         values="0 0 0 0 0 0 0 0 0 0 0 0 0 0 0 0 0 0 0.25 0"
         id="feColorMatrix409" />
      <feBlend
         mode="normal"
         in2="shape"
         result="effect1_innerShadow_102_2"
         id="feBlend411" />
    </filter>
  </defs>
</svg>
